<svg xmlns="http://www.w3.org/2000/svg" xmlns:xlink="http://www.w3.org/1999/xlink" width="20" height="20" viewBox="0 0 20 20">
  <defs>
    <clipPath id="clip-path">
      <path id="Path_330" data-name="Path 330" d="M0,0H20V20H0Z" fill="none"/>
    </clipPath>
  </defs>
  <g id="Mask_Group_1" data-name="Mask Group 1" clip-path="url(#clip-path)">
    <path id="Path_329" data-name="Path 329" d="M10,1.8c2.67,0,2.987.01,4.042.058,2.71.123,3.976,1.409,4.1,4.1.048,1.054.058,1.371.058,4.041s-.01,2.987-.058,4.041c-.124,2.688-1.387,3.976-4.1,4.1-1.055.048-1.37.058-4.042.058s-2.987-.01-4.041-.058c-2.717-.124-3.976-1.416-4.1-4.1C1.812,12.987,1.8,12.671,1.8,10s.011-2.986.058-4.041c.124-2.689,1.387-3.976,4.1-4.1C7.014,1.812,7.33,1.8,10,1.8M10,0C7.284,0,6.944.012,5.878.06,2.246.227.228,2.242.061,5.877.012,6.944,0,7.284,0,10s.012,3.057.06,4.123c.167,3.632,2.182,5.65,5.817,5.817C6.944,19.988,7.284,20,10,20s3.057-.012,4.123-.06c3.628-.167,5.652-2.182,5.816-5.817C19.988,13.057,20,12.716,20,10s-.012-3.056-.06-4.122C19.777,2.249,17.759.228,14.124.061,13.057.012,12.716,0,10,0m0,4.865A5.135,5.135,0,1,0,15.135,10,5.135,5.135,0,0,0,10,4.865m0,8.468A3.333,3.333,0,1,1,13.333,10,3.333,3.333,0,0,1,10,13.333m5.338-9.871a1.2,1.2,0,1,0,1.2,1.2,1.2,1.2,0,0,0-1.2-1.2" transform="translate(0 0)" fill="#3A656B"/>
  </g>
</svg>
